<?xml version="1.0" encoding="UTF-8" standalone="no"?>
<svg
   inkscape:export-ydpi="96"
   inkscape:export-xdpi="96"
   inkscape:export-filename="org.xfce.ristretto.png"
   inkscape:version="1.2.2 (b0a8486541, 2022-12-01)"
   sodipodi:docname="org.xfce.ristretto.svg"
   viewBox="0 0 128 128"
   style="display:inline;enable-background:new"
   version="1.0"
   id="svg11300"
   height="128"
   width="128"
   xmlns:inkscape="http://www.inkscape.org/namespaces/inkscape"
   xmlns:sodipodi="http://sodipodi.sourceforge.net/DTD/sodipodi-0.dtd"
   xmlns:xlink="http://www.w3.org/1999/xlink"
   xmlns="http://www.w3.org/2000/svg"
   xmlns:svg="http://www.w3.org/2000/svg"
   xmlns:rdf="http://www.w3.org/1999/02/22-rdf-syntax-ns#"
   xmlns:cc="http://creativecommons.org/ns#"
   xmlns:dc="http://purl.org/dc/elements/1.1/">
  <sodipodi:namedview
     inkscape:document-rotation="0"
     inkscape:guide-bbox="true"
     showguides="true"
     inkscape:lockguides="true"
     inkscape:current-layer="svg11300"
     inkscape:window-maximized="0"
     inkscape:window-y="40"
     inkscape:window-x="515"
     inkscape:cy="22.86822"
     inkscape:cx="-0.28407727"
     inkscape:zoom="3.520169"
     showgrid="false"
     id="namedview44"
     inkscape:window-height="908"
     inkscape:window-width="1238"
     inkscape:pageshadow="2"
     inkscape:pageopacity="0"
     guidetolerance="10"
     gridtolerance="10"
     objecttolerance="10"
     borderopacity="1"
     bordercolor="#666666"
     pagecolor="#ffffff"
     inkscape:showpageshadow="2"
     inkscape:pagecheckerboard="0"
     inkscape:deskcolor="#d1d1d1">
    <inkscape:grid
       empspacing="4"
       id="grid4761"
       type="xygrid" />
    <sodipodi:guide
       inkscape:locked="true"
       id="guide1146"
       orientation="1,0"
       position="524,126.23617" />
  </sodipodi:namedview>
  <title
     id="title4162">Adwaita Icon Template</title>
  <defs
     id="defs3">
    <linearGradient
       inkscape:collect="always"
       id="linearGradient1644">
      <stop
         style="stop-color:#6acc0a;stop-opacity:1"
         offset="0"
         id="stop1640" />
      <stop
         style="stop-color:#87bae1;stop-opacity:0"
         offset="1"
         id="stop1642" />
    </linearGradient>
    <radialGradient
       r="192"
       fy="194.65071"
       fx="527.62366"
       cy="194.65071"
       cx="527.62366"
       gradientTransform="matrix(0,0.3294479,0.35586813,0,-37.269992,-153.82446)"
       gradientUnits="userSpaceOnUse"
       id="radialGradient1638"
       xlink:href="#linearGradient1644"
       inkscape:collect="always" />
    <radialGradient
       r="192"
       fy="275.93033"
       fx="352.97995"
       cy="275.93033"
       cx="352.97995"
       gradientTransform="matrix(-0.23131863,-0.37839741,-0.24475957,0.13346141,179.18754,182.14362)"
       gradientUnits="userSpaceOnUse"
       id="radialGradient1388"
       xlink:href="#linearGradient1352-1"
       inkscape:collect="always" />
    <linearGradient
       id="linearGradient1352-1"
       inkscape:collect="always">
      <stop
         id="stop1348-2"
         offset="0"
         style="stop-color:#00aade;stop-opacity:1" />
      <stop
         id="stop1350-7"
         offset="1"
         style="stop-color:#8ff0a4;stop-opacity:0.00414938" />
    </linearGradient>
    <radialGradient
       r="160"
       fy="148.6301"
       fx="105.22436"
       cy="148.6301"
       cx="105.22436"
       gradientTransform="matrix(0.21237911,0.49319194,0.28316239,-0.27498394,55.566137,1.4196213)"
       gradientUnits="userSpaceOnUse"
       id="radialGradient1370"
       xlink:href="#linearGradient1634-0"
       inkscape:collect="always" />
    <linearGradient
       inkscape:collect="always"
       id="linearGradient1634-0">
      <stop
         style="stop-color:#e6461d;stop-opacity:1"
         offset="0"
         id="stop1630-9" />
      <stop
         style="stop-color:#f9da02;stop-opacity:1"
         offset="1"
         id="stop1632-3" />
    </linearGradient>
    <filter
       height="1.028"
       y="-0.014000013"
       width="1.021"
       x="-0.010499993"
       id="filter999"
       style="color-interpolation-filters:sRGB"
       inkscape:collect="always">
      <feGaussianBlur
         id="feGaussianBlur1001"
         stdDeviation="0.49000045"
         inkscape:collect="always" />
    </filter>
  </defs>
  <metadata
     id="metadata4">
    <rdf:RDF>
      <cc:Work
         rdf:about="">
        <dc:format>image/svg+xml</dc:format>
        <dc:type
           rdf:resource="http://purl.org/dc/dcmitype/StillImage" />
        <dc:creator>
          <cc:Agent>
            <dc:title>GNOME Design Team</dc:title>
          </cc:Agent>
        </dc:creator>
        <dc:source />
        <cc:license
           rdf:resource="http://creativecommons.org/licenses/by-sa/4.0/" />
        <dc:title>Adwaita Icon Template</dc:title>
        <dc:subject>
          <rdf:Bag />
        </dc:subject>
        <dc:date />
        <dc:rights>
          <cc:Agent>
            <dc:title />
          </cc:Agent>
        </dc:rights>
        <dc:publisher>
          <cc:Agent>
            <dc:title />
          </cc:Agent>
        </dc:publisher>
        <dc:identifier />
        <dc:relation />
        <dc:language />
        <dc:coverage />
        <dc:description />
        <dc:contributor>
          <cc:Agent>
            <dc:title />
          </cc:Agent>
        </dc:contributor>
      </cc:Work>
      <cc:License
         rdf:about="http://creativecommons.org/licenses/by-sa/4.0/">
        <cc:permits
           rdf:resource="http://creativecommons.org/ns#Reproduction" />
        <cc:permits
           rdf:resource="http://creativecommons.org/ns#Distribution" />
        <cc:requires
           rdf:resource="http://creativecommons.org/ns#Notice" />
        <cc:requires
           rdf:resource="http://creativecommons.org/ns#Attribution" />
        <cc:permits
           rdf:resource="http://creativecommons.org/ns#DerivativeWorks" />
        <cc:requires
           rdf:resource="http://creativecommons.org/ns#ShareAlike" />
      </cc:License>
    </rdf:RDF>
  </metadata>
  <path
     style="display:inline;opacity:0.4;vector-effect:none;fill:#070c0f;fill-opacity:1;stroke:none;stroke-width:0.12207806;stroke-linecap:butt;stroke-linejoin:miter;stroke-miterlimit:4;stroke-dasharray:none;stroke-dashoffset:0;stroke-opacity:1;marker:none;marker-start:none;marker-mid:none;marker-end:none;paint-order:normal;enable-background:new;filter:url(#filter999)"
     d="M 112,96 H 15.999844 C 11.567806,96 7.99983,92.59687 7.99983,88.36957 V 44 L 40,12 l 72,4.9e-5 c 4.43191,3e-6 8.00001,3.403127 8.00001,7.630292 V 88.36957 C 120.00001,92.59687 116.43191,96 112,96 Z"
     id="rect1003-6"
     inkscape:connector-curvature="0"
     sodipodi:nodetypes="sssccssss" />
  <path
     style="display:inline;opacity:1;fill:#f1f3f5;fill-opacity:1;stroke:none;stroke-width:1;stroke-linecap:butt;stroke-linejoin:miter;stroke-miterlimit:4;stroke-dasharray:none;stroke-dashoffset:0;stroke-opacity:1;marker:none;marker-start:none;marker-mid:none;marker-end:none;paint-order:normal;enable-background:new"
     d="M 112.00017,96 H 16.000014 C 11.567976,96 8,92.596873 8,88.369575 V 44 l 32.000169,-32 72.000001,4.9e-5 c 4.43191,3e-6 8.00001,3.403127 8.00001,7.630292 v 68.739234 c 0,4.227298 -3.5681,7.630425 -8.00001,7.630425 z"
     id="rect1003"
     inkscape:connector-curvature="0"
     sodipodi:nodetypes="sssccssss" />
  <path
     inkscape:connector-curvature="0"
     id="rect1007-6"
     d="M 112,87.999978 V 20.00005 H 38.000028 v 13.104044 c 0,4.185903 -3.568032,7.555769 -8.000026,7.555769 H 16.000044 v 47.340115 z"
     style="display:inline;vector-effect:none;fill:url(#radialGradient1370);fill-opacity:1;stroke:none;stroke-width:0.121479;stroke-linecap:butt;stroke-linejoin:miter;stroke-miterlimit:4;stroke-dasharray:none;stroke-dashoffset:0;stroke-opacity:1;marker:none;marker-start:none;marker-mid:none;marker-end:none;paint-order:normal;enable-background:new" />
  <path
     inkscape:connector-curvature="0"
     id="rect1636-6"
     d="M 112,87.999978 V 20.00005 H 38.000028 v 13.104044 c 0,4.185903 -3.568032,7.555769 -8.000026,7.555769 H 16.000044 v 47.340115 z"
     style="display:inline;vector-effect:none;fill:url(#radialGradient1638);fill-opacity:1;stroke:none;stroke-width:0.121479;stroke-linecap:butt;stroke-linejoin:miter;stroke-miterlimit:4;stroke-dasharray:none;stroke-dashoffset:0;stroke-opacity:1;marker:none;marker-start:none;marker-mid:none;marker-end:none;paint-order:normal;enable-background:new" />
  <path
     sodipodi:nodetypes="cccssccc"
     id="rect1338-0"
     d="M 112,87.999978 V 20.00005 H 38.000028 v 13.104044 c 0,4.185903 -3.568032,7.555652 -8.000026,7.555652 H 16.000044 v 47.340232 z"
     style="display:inline;vector-effect:none;fill:url(#radialGradient1388);fill-opacity:1;stroke:none;stroke-width:0.121479;stroke-linecap:butt;stroke-linejoin:miter;stroke-miterlimit:4;stroke-dasharray:none;stroke-dashoffset:0;stroke-opacity:1;marker:none;marker-start:none;marker-mid:none;marker-end:none;paint-order:normal;enable-background:new"
     inkscape:connector-curvature="0" />
  <path
     id="rect26812-9"
     d="M 8.0000181,44.000011 H 31.466448 c 4.727656,0 8.533557,-3.821876 8.533557,-8.569032 V 12.000024 Z"
     style="display:inline;vector-effect:none;fill:#d2d8dc;fill-opacity:1;stroke:none;stroke-width:0.133612;stroke-linecap:butt;stroke-linejoin:round;stroke-miterlimit:4;stroke-dasharray:none;stroke-dashoffset:0;stroke-opacity:1;enable-background:new"
     inkscape:connector-curvature="0" />
  <path
     sodipodi:nodetypes="ccscccc"
     inkscape:connector-curvature="0"
     id="path895-5-3"
     d="m 84.176523,79.969763 c -0.03524,0.291316 -0.04699,0.583806 -0.04699,0.876297 0,5.709438 5.354103,10.337835 11.958632,10.337835 6.604295,0 11.958405,-4.628397 11.958405,-10.337835 -0.003,-0.281919 -0.0235,-0.565012 -0.047,-0.845756 -0.52625,5.348347 -5.70063,9.458602 -11.909771,9.461069 -6.221824,-0.0038 -11.400668,-4.131046 -11.909883,-9.491375 z"
     style="display:inline;fill:#758087;fill-opacity:1;stroke:none;stroke-width:1.93368;stroke-linecap:butt;stroke-linejoin:miter;stroke-miterlimit:4;stroke-dasharray:none;stroke-dashoffset:0;stroke-opacity:1;paint-order:normal;enable-background:new" />
  <path
     inkscape:connector-curvature="0"
     id="path895-5"
     d="m 95.999834,70.000066 a 11.999999,8.9999499 0 0 0 -11.99998,8.999897 11.999999,8.9999499 0 0 0 11.99998,9.000132 11.999999,8.9999499 0 0 0 11.999976,-9.000132 11.999999,8.9999499 0 0 0 -11.999976,-8.999897 z m 0,6.000049 a 3.9999999,2.9999833 0 0 1 3.999955,2.999848 3.9999999,2.9999833 0 0 1 -3.999955,3.000083 3.9999999,2.9999833 0 0 1 -4.000071,-3.000083 3.9999999,2.9999833 0 0 1 4.000071,-2.999848 z"
     style="display:inline;fill:#a7b0b7;fill-opacity:1;stroke:none;stroke-width:1.80736;stroke-linecap:butt;stroke-linejoin:miter;stroke-miterlimit:4;stroke-dasharray:none;stroke-dashoffset:0;stroke-opacity:1;paint-order:normal;enable-background:new" />
  <path
     sodipodi:nodetypes="cccccccccc"
     inkscape:connector-curvature="0"
     id="path1406-7-5"
     d="m 20.149298,73.288293 -0.01175,9.767538 v 0 c -0.03524,0.375892 -0.137435,-10.581225 -0.137435,-1.705842 0.0011,12.130015 15.751024,34.648381 35.015693,34.648961 19.264903,-5.8e-4 34.747165,-22.518946 34.748457,-34.648961 0.182073,9.67521 -0.01175,0.371193 -0.09397,0 h 0.09397 l 0.10572,-8.061931 z"
     style="display:inline;fill:#758087;fill-opacity:1;stroke:none;stroke-width:2.7176;stroke-linecap:round;stroke-linejoin:miter;stroke-miterlimit:4;stroke-dasharray:none;stroke-dashoffset:0;stroke-opacity:1;paint-order:normal;enable-background:new" />
  <path
     sodipodi:nodetypes="cccccccccc"
     inkscape:connector-curvature="0"
     id="path1406-7"
     d="m 20.14918,72.000161 -0.01175,9.604964 v 0 c -0.03524,0.371193 -0.137436,-10.405143 -0.137436,-1.677297 0.0013,11.927973 15.780626,34.071622 35.081004,34.072202 19.300849,-5.8e-4 34.811889,-22.144229 34.813064,-34.072202 0.182073,9.514163 -0.01175,0.365319 -0.09397,0 h 0.09397 l 0.10572,-7.927785 z"
     style="display:inline;fill:#f1f3f5;fill-opacity:1;stroke:none;stroke-width:2.69741;stroke-linecap:round;stroke-linejoin:miter;stroke-miterlimit:4;stroke-dasharray:none;stroke-dashoffset:0;stroke-opacity:1;paint-order:normal;enable-background:new" />
  <path
     inkscape:connector-curvature="0"
     id="path895"
     d="m 95.999952,72.000043 a 11.999999,8.9999688 0 0 0 -11.99998,9.000015 11.999999,8.9999688 0 0 0 11.99998,9.000014 11.999999,8.9999688 0 0 0 11.999978,-9.000014 11.999999,8.9999688 0 0 0 -11.999978,-9.000015 z m 0,6.000049 a 4,2.9999898 0 0 1 3.999954,2.999966 4,2.9999898 0 0 1 -3.999954,2.999965 4,2.9999898 0 0 1 -4.000072,-2.999965 4,2.9999898 0 0 1 4.000072,-2.999966 z"
     style="fill:#f1f3f5;fill-opacity:1;stroke:none;stroke-width:1.80736;stroke-linecap:butt;stroke-linejoin:miter;stroke-miterlimit:4;stroke-dasharray:none;stroke-dashoffset:0;stroke-opacity:1;paint-order:normal" />
  <ellipse
     rx="33.999893"
     ry="20.499891"
     cy="72.499939"
     cx="54.999916"
     id="path1406"
     style="display:inline;fill:#4a3025;fill-opacity:1;stroke:#a7b0b7;stroke-width:2.00021;stroke-linecap:round;stroke-linejoin:miter;stroke-miterlimit:4;stroke-dasharray:none;stroke-dashoffset:0;stroke-opacity:1;paint-order:normal;enable-background:new" />
</svg>
