<?xml version="1.0" encoding="UTF-8" standalone="no"?>
<!-- Created with Inkscape (http://www.inkscape.org/) -->
<svg
   xmlns:dc="http://purl.org/dc/elements/1.1/"
   xmlns:cc="http://web.resource.org/cc/"
   xmlns:rdf="http://www.w3.org/1999/02/22-rdf-syntax-ns#"
   xmlns:svg="http://www.w3.org/2000/svg"
   xmlns="http://www.w3.org/2000/svg"
   xmlns:sodipodi="http://sodipodi.sourceforge.net/DTD/sodipodi-0.dtd"
   xmlns:inkscape="http://www.inkscape.org/namespaces/inkscape"
   id="svg2"
   sodipodi:version="0.32"
   inkscape:version="0.45.1"
   width="48"
   height="48"
   sodipodi:docbase="/home/stephan"
   sodipodi:docname="ristretto.svg"
   inkscape:output_extension="org.inkscape.output.svg.inkscape"
   version="1.0">
  <metadata
     id="metadata7">
    <rdf:RDF>
      <cc:Work
         rdf:about="">
        <dc:format>image/svg+xml</dc:format>
        <dc:type
           rdf:resource="http://purl.org/dc/dcmitype/StillImage" />
      </cc:Work>
    </rdf:RDF>
  </metadata>
  <defs
     id="defs5" />
  <sodipodi:namedview
     inkscape:window-height="601"
     inkscape:window-width="822"
     inkscape:pageshadow="2"
     inkscape:pageopacity="0.0"
     guidetolerance="10.0"
     gridtolerance="10.0"
     objecttolerance="10.0"
     borderopacity="1.0"
     bordercolor="#666666"
     pagecolor="#ffffff"
     id="base"
     showguides="true"
     inkscape:guide-bbox="true"
     inkscape:zoom="7.875"
     inkscape:cx="24"
     inkscape:cy="24"
     inkscape:window-x="456"
     inkscape:window-y="136"
     inkscape:current-layer="svg2"
     width="48px"
     height="48px" />
  <g
     id="g7078"
     transform="translate(-77.124653,-424.98321)">
    <path
       sodipodi:nodetypes="cccssccszcc"
       id="path2167"
       d="M 124.57329,438.5848 L 124.57329,463.13118 C 119.16811,460.23084 114.93895,459.28262 111.71894,459.28262 C 105.57165,459.28262 103.09628,462.74589 101.12465,462.7954 C 99.153023,462.8449 96.677658,459.38163 90.530365,459.38163 C 87.310354,459.38163 83.081197,460.32985 77.676017,463.23019 L 77.676017,438.68381 C 83.081198,435.78347 87.310354,434.83526 90.530365,434.83526 C 96.677658,434.83526 99.153023,438.29853 101.12465,438.24902 C 103.09629,438.19951 105.57165,434.73624 111.71894,434.73624 C 114.93895,434.73624 119.16811,435.68446 124.57329,438.5848 z "
       style="fill:#e9b96e;fill-opacity:1;fill-rule:evenodd;stroke:#8f5902;stroke-width:1;stroke-linecap:butt;stroke-linejoin:miter;stroke-miterlimit:4;stroke-dasharray:none;stroke-opacity:1" />
    <rect
       inkscape:transform-center-y="-13.920135"
       transform="matrix(0.9316459,0.3633675,-0.5061119,0.8624679,0,0)"
       y="382.20691"
       x="298.18143"
       height="9.2001705"
       width="7.0004215"
       id="rect3160"
       style="fill:#729fcf;fill-opacity:1;stroke:#ffffff;stroke-width:1.00635028;stroke-miterlimit:4;stroke-dasharray:none;stroke-opacity:1" />
    <rect
       transform="matrix(0.9836874,0.1798865,0,1,0,0)"
       y="428.58337"
       x="92.358391"
       height="12.157635"
       width="7.6807351"
       id="rect4131"
       style="fill:#4e9a0a;fill-opacity:1;stroke:#ffffff;stroke-width:1.00825751;stroke-miterlimit:4;stroke-dasharray:none;stroke-opacity:1" />
    <rect
       transform="matrix(0.9707305,-0.2401712,0,1,0,0)"
       y="466.02637"
       x="107.03967"
       height="7.2316227"
       width="9.0595131"
       id="rect4133"
       style="fill:#f57900;fill-opacity:1;stroke:#ffffff;stroke-width:1.0149641;stroke-miterlimit:4;stroke-dasharray:none;stroke-opacity:1" />
    <rect
       transform="matrix(0.9807924,0.1950546,0,1,0,0)"
       y="426.37952"
       x="114.66398"
       height="7.5044503"
       width="10.290956"
       id="rect4135"
       style="fill:#edd400;fill-opacity:1;stroke:#ffffff;stroke-width:1.00974441;stroke-miterlimit:4;stroke-dasharray:none;stroke-opacity:1" />
    <path
       id="path5124"
       d="M 101.01702,438.13622 L 101.01702,462.29774"
       style="fill:none;fill-rule:evenodd;stroke:#8f5902;stroke-width:1;stroke-linecap:butt;stroke-linejoin:miter;stroke-miterlimit:4;stroke-dasharray:none;stroke-opacity:1" />
  </g>
</svg>
